<?xml version="1.0" encoding="utf-8"?>
<!-- Svg Vector Icons : http://www.onlinewebfonts.com/icon -->
<!DOCTYPE svg PUBLIC "-//W3C//DTD SVG 1.1//EN" "http://www.w3.org/Graphics/SVG/1.1/DTD/svg11.dtd">
<svg style="" version="1.1" xmlns="http://www.w3.org/2000/svg" xmlns:xlink="http://www.w3.org/1999/xlink" x="0px" y="0px" viewBox="0 0 1000 1000" enable-background="new 0 0 1000 1000" xml:space="preserve" >
<metadata> Svg Vector Icons : http://www.onlinewebfonts.com/icon </metadata>
<g><g transform="translate(0.000000,511.000000) scale(0.100000,-0.100000)"><path d="M2010.3,3349.6c-869-122.3-1573.1-704.2-1840.3-1523.2c-64.9-194.8-69.9-244.7-69.9-599.3c-2.5-449.5,27.5-584.3,197.3-941.4c382-789,1158.6-1271,2085-1293.4l287.2-7.5l17.5-97.4c54.9-307.1-139.8-926.4-529.4-1673c-187.3-357.1-194.8-379.6-129.8-354.6c102.4,40,509.4,379.5,804,671.7C4285.1-1017.7,4976.8,807.6,4512.3,1968.7c-174.8,434.5-621.8,898.9-1106.2,1143.6C3009.1,3314.6,2442.3,3409.5,2010.3,3349.6z"/><path d="M7251.5,3347.1c-701.6-89.9-1345.9-529.4-1680.5-1148.6c-287.2-526.9-322.1-1228.5-87.4-1790.3c157.3-382.1,476.9-774.1,806.5-996.3c414.5-279.7,821.5-407,1335.9-419.5l287.2-7.5l17.5-97.4c54.9-312.1-132.3-908.9-529.4-1673c-187.3-357.1-194.8-379.6-132.3-354.6c157.3,59.9,746.6,584.3,1081.2,958.9c1425.8,1605.6,1930.2,3398.4,1251,4452.1C9106.8,3035,8165.4,3464.4,7251.5,3347.1z"/></g></g>
</svg>